<mxfile host="app.diagrams.net" modified="2023-08-03T13:11:44.343Z" agent="Mozilla/5.0 (Windows NT 10.0; Win64; x64) AppleWebKit/537.36 (KHTML, like Gecko) Chrome/115.0.0.0 Safari/537.36" etag="dbp9cXOa3fANJsTaKTJZ" version="21.6.6" type="github">
  <diagram name="페이지-1" id="bDkqgjwrBdkNWqb-nz_v">
    <mxGraphModel dx="1434" dy="790" grid="1" gridSize="10" guides="1" tooltips="1" connect="1" arrows="1" fold="1" page="1" pageScale="1" pageWidth="827" pageHeight="1169" math="0" shadow="0">
      <root>
        <mxCell id="0" />
        <mxCell id="1" parent="0" />
        <mxCell id="NEW2Dw0frZBsMnFtJAXS-13" style="rounded=0;orthogonalLoop=1;jettySize=auto;html=1;exitX=1;exitY=0.3333333333333333;exitDx=0;exitDy=0;exitPerimeter=0;entryX=0;entryY=0.5;entryDx=0;entryDy=0;endArrow=none;endFill=0;" edge="1" parent="1" source="NEW2Dw0frZBsMnFtJAXS-1" target="NEW2Dw0frZBsMnFtJAXS-3">
          <mxGeometry relative="1" as="geometry" />
        </mxCell>
        <mxCell id="NEW2Dw0frZBsMnFtJAXS-1" value="이용자" style="shape=umlActor;verticalLabelPosition=bottom;verticalAlign=top;html=1;" vertex="1" parent="1">
          <mxGeometry x="20" y="220" width="30" height="60" as="geometry" />
        </mxCell>
        <mxCell id="NEW2Dw0frZBsMnFtJAXS-2" value="T_T 서비스" style="shape=umlFrame;whiteSpace=wrap;html=1;pointerEvents=0;width=80;height=20;" vertex="1" parent="1">
          <mxGeometry x="100" y="110" width="580" height="460" as="geometry" />
        </mxCell>
        <mxCell id="NEW2Dw0frZBsMnFtJAXS-10" value="&amp;lt;&amp;lt;include&amp;gt;&amp;gt;" style="rounded=0;orthogonalLoop=1;jettySize=auto;html=1;exitX=1;exitY=0.5;exitDx=0;exitDy=0;entryX=0;entryY=0.5;entryDx=0;entryDy=0;dashed=1;" edge="1" parent="1" source="NEW2Dw0frZBsMnFtJAXS-3" target="NEW2Dw0frZBsMnFtJAXS-9">
          <mxGeometry relative="1" as="geometry" />
        </mxCell>
        <mxCell id="NEW2Dw0frZBsMnFtJAXS-3" value="카카오 로그인" style="rounded=1;whiteSpace=wrap;html=1;arcSize=40;fontColor=#000000;fillColor=#ffffc0;strokeColor=#ff0000;" vertex="1" parent="1">
          <mxGeometry x="270" y="325" width="120" height="40" as="geometry" />
        </mxCell>
        <mxCell id="NEW2Dw0frZBsMnFtJAXS-20" value="&amp;lt;&amp;lt;extend&amp;gt;&amp;gt;" style="rounded=0;orthogonalLoop=1;jettySize=auto;html=1;exitX=0;exitY=0.5;exitDx=0;exitDy=0;entryX=1;entryY=0.5;entryDx=0;entryDy=0;dashed=1;" edge="1" parent="1" source="NEW2Dw0frZBsMnFtJAXS-19" target="NEW2Dw0frZBsMnFtJAXS-5">
          <mxGeometry relative="1" as="geometry" />
        </mxCell>
        <mxCell id="NEW2Dw0frZBsMnFtJAXS-38" style="rounded=0;orthogonalLoop=1;jettySize=auto;html=1;exitX=1;exitY=0.75;exitDx=0;exitDy=0;entryX=0;entryY=0.75;entryDx=0;entryDy=0;endArrow=none;endFill=0;" edge="1" parent="1" source="NEW2Dw0frZBsMnFtJAXS-5" target="NEW2Dw0frZBsMnFtJAXS-24">
          <mxGeometry relative="1" as="geometry" />
        </mxCell>
        <mxCell id="NEW2Dw0frZBsMnFtJAXS-39" value="&amp;lt;&amp;lt;extend&amp;gt;&amp;gt;" style="rounded=0;orthogonalLoop=1;jettySize=auto;html=1;dashed=1;" edge="1" parent="1" source="NEW2Dw0frZBsMnFtJAXS-5" target="NEW2Dw0frZBsMnFtJAXS-12">
          <mxGeometry relative="1" as="geometry" />
        </mxCell>
        <mxCell id="NEW2Dw0frZBsMnFtJAXS-5" value="모집에 참가" style="rounded=1;whiteSpace=wrap;html=1;arcSize=40;fontColor=#000000;fillColor=#ffffc0;strokeColor=#ff0000;" vertex="1" parent="1">
          <mxGeometry x="354" y="140" width="120" height="40" as="geometry" />
        </mxCell>
        <mxCell id="NEW2Dw0frZBsMnFtJAXS-27" style="rounded=0;orthogonalLoop=1;jettySize=auto;html=1;exitX=1;exitY=0.5;exitDx=0;exitDy=0;entryX=0;entryY=0.5;entryDx=0;entryDy=0;endArrow=none;endFill=0;" edge="1" parent="1" source="NEW2Dw0frZBsMnFtJAXS-6" target="NEW2Dw0frZBsMnFtJAXS-26">
          <mxGeometry relative="1" as="geometry">
            <mxPoint x="687" y="475" as="targetPoint" />
          </mxGeometry>
        </mxCell>
        <mxCell id="NEW2Dw0frZBsMnFtJAXS-47" value="&amp;lt;&amp;lt;include&amp;gt;&amp;gt;" style="rounded=0;orthogonalLoop=1;jettySize=auto;html=1;exitX=1;exitY=0;exitDx=0;exitDy=0;entryX=0.45;entryY=0.95;entryDx=0;entryDy=0;entryPerimeter=0;dashed=1;" edge="1" parent="1" source="NEW2Dw0frZBsMnFtJAXS-6" target="NEW2Dw0frZBsMnFtJAXS-3">
          <mxGeometry x="-0.6198" y="-11" relative="1" as="geometry">
            <mxPoint as="offset" />
          </mxGeometry>
        </mxCell>
        <mxCell id="NEW2Dw0frZBsMnFtJAXS-6" value="채팅 하기" style="rounded=1;whiteSpace=wrap;html=1;arcSize=40;fontColor=#000000;fillColor=#ffffc0;strokeColor=#ff0000;" vertex="1" parent="1">
          <mxGeometry x="150" y="490" width="120" height="40" as="geometry" />
        </mxCell>
        <mxCell id="NEW2Dw0frZBsMnFtJAXS-23" value="&amp;lt;&amp;lt;extend&amp;gt;&amp;gt;" style="rounded=0;orthogonalLoop=1;jettySize=auto;html=1;exitX=0;exitY=0.5;exitDx=0;exitDy=0;entryX=1;entryY=0.5;entryDx=0;entryDy=0;dashed=1;" edge="1" parent="1" source="NEW2Dw0frZBsMnFtJAXS-7" target="NEW2Dw0frZBsMnFtJAXS-8">
          <mxGeometry relative="1" as="geometry" />
        </mxCell>
        <mxCell id="NEW2Dw0frZBsMnFtJAXS-33" style="rounded=0;orthogonalLoop=1;jettySize=auto;html=1;exitX=1;exitY=0.25;exitDx=0;exitDy=0;entryX=0;entryY=1;entryDx=0;entryDy=0;endArrow=none;endFill=0;" edge="1" parent="1" source="NEW2Dw0frZBsMnFtJAXS-7" target="NEW2Dw0frZBsMnFtJAXS-24">
          <mxGeometry relative="1" as="geometry">
            <Array as="points" />
          </mxGeometry>
        </mxCell>
        <mxCell id="NEW2Dw0frZBsMnFtJAXS-7" value="모집글 작성, 삭제, 수정" style="rounded=1;whiteSpace=wrap;html=1;arcSize=40;fontColor=#000000;fillColor=#ffffc0;strokeColor=#ff0000;" vertex="1" parent="1">
          <mxGeometry x="474" y="430" width="130" height="40" as="geometry" />
        </mxCell>
        <mxCell id="NEW2Dw0frZBsMnFtJAXS-34" style="rounded=0;orthogonalLoop=1;jettySize=auto;html=1;exitX=1;exitY=0.25;exitDx=0;exitDy=0;entryX=0;entryY=1;entryDx=0;entryDy=0;endArrow=none;endFill=0;" edge="1" parent="1" source="NEW2Dw0frZBsMnFtJAXS-8" target="NEW2Dw0frZBsMnFtJAXS-24">
          <mxGeometry relative="1" as="geometry">
            <Array as="points">
              <mxPoint x="570" y="400" />
            </Array>
          </mxGeometry>
        </mxCell>
        <mxCell id="NEW2Dw0frZBsMnFtJAXS-46" value="&amp;lt;incldue&amp;gt;&amp;gt;" style="rounded=0;orthogonalLoop=1;jettySize=auto;html=1;exitX=1;exitY=0;exitDx=0;exitDy=0;entryX=0.25;entryY=1;entryDx=0;entryDy=0;dashed=1;" edge="1" parent="1" source="NEW2Dw0frZBsMnFtJAXS-8" target="NEW2Dw0frZBsMnFtJAXS-3">
          <mxGeometry relative="1" as="geometry" />
        </mxCell>
        <mxCell id="NEW2Dw0frZBsMnFtJAXS-8" value="모집글 보기" style="rounded=1;whiteSpace=wrap;html=1;arcSize=40;fontColor=#000000;fillColor=#ffffc0;strokeColor=#ff0000;" vertex="1" parent="1">
          <mxGeometry x="150" y="410" width="120" height="40" as="geometry" />
        </mxCell>
        <mxCell id="NEW2Dw0frZBsMnFtJAXS-32" style="rounded=0;orthogonalLoop=1;jettySize=auto;html=1;exitX=1;exitY=0.5;exitDx=0;exitDy=0;entryX=0;entryY=0.75;entryDx=0;entryDy=0;endArrow=none;endFill=0;" edge="1" parent="1" source="NEW2Dw0frZBsMnFtJAXS-9" target="NEW2Dw0frZBsMnFtJAXS-24">
          <mxGeometry relative="1" as="geometry" />
        </mxCell>
        <mxCell id="NEW2Dw0frZBsMnFtJAXS-9" value="사용자 인증" style="rounded=1;whiteSpace=wrap;html=1;arcSize=40;fontColor=#000000;fillColor=#ffffc0;strokeColor=#ff0000;" vertex="1" parent="1">
          <mxGeometry x="470" y="325" width="120" height="40" as="geometry" />
        </mxCell>
        <mxCell id="NEW2Dw0frZBsMnFtJAXS-29" style="rounded=0;orthogonalLoop=1;jettySize=auto;html=1;exitX=1;exitY=0.5;exitDx=0;exitDy=0;entryX=0;entryY=0.75;entryDx=0;entryDy=0;endArrow=none;endFill=0;" edge="1" parent="1" source="NEW2Dw0frZBsMnFtJAXS-11" target="NEW2Dw0frZBsMnFtJAXS-24">
          <mxGeometry relative="1" as="geometry">
            <Array as="points">
              <mxPoint x="520" y="270" />
            </Array>
          </mxGeometry>
        </mxCell>
        <mxCell id="NEW2Dw0frZBsMnFtJAXS-45" value="&amp;lt;&amp;lt;include&amp;gt;&amp;gt;" style="rounded=0;orthogonalLoop=1;jettySize=auto;html=1;exitX=1;exitY=1;exitDx=0;exitDy=0;entryX=0.25;entryY=0;entryDx=0;entryDy=0;dashed=1;" edge="1" parent="1" source="NEW2Dw0frZBsMnFtJAXS-11" target="NEW2Dw0frZBsMnFtJAXS-3">
          <mxGeometry relative="1" as="geometry" />
        </mxCell>
        <mxCell id="NEW2Dw0frZBsMnFtJAXS-11" value="모집글 게시판 보기" style="rounded=1;whiteSpace=wrap;html=1;arcSize=40;fontColor=#000000;fillColor=#ffffc0;strokeColor=#ff0000;" vertex="1" parent="1">
          <mxGeometry x="150" y="230" width="120" height="40" as="geometry" />
        </mxCell>
        <mxCell id="NEW2Dw0frZBsMnFtJAXS-36" style="rounded=0;orthogonalLoop=1;jettySize=auto;html=1;exitX=1;exitY=1;exitDx=0;exitDy=0;entryX=0;entryY=0.75;entryDx=0;entryDy=0;endArrow=none;endFill=0;" edge="1" parent="1" source="NEW2Dw0frZBsMnFtJAXS-12" target="NEW2Dw0frZBsMnFtJAXS-24">
          <mxGeometry relative="1" as="geometry">
            <Array as="points">
              <mxPoint x="380" y="210" />
              <mxPoint x="520" y="230" />
            </Array>
          </mxGeometry>
        </mxCell>
        <mxCell id="NEW2Dw0frZBsMnFtJAXS-48" value="&amp;lt;&amp;lt;include&amp;gt;&amp;gt;" style="rounded=0;orthogonalLoop=1;jettySize=auto;html=1;exitX=0.75;exitY=1;exitDx=0;exitDy=0;entryX=0.5;entryY=0;entryDx=0;entryDy=0;dashed=1;" edge="1" parent="1" source="NEW2Dw0frZBsMnFtJAXS-12" target="NEW2Dw0frZBsMnFtJAXS-3">
          <mxGeometry relative="1" as="geometry">
            <Array as="points">
              <mxPoint x="320" y="230" />
            </Array>
          </mxGeometry>
        </mxCell>
        <mxCell id="NEW2Dw0frZBsMnFtJAXS-12" value="지도 보기" style="rounded=1;whiteSpace=wrap;html=1;arcSize=40;fontColor=#000000;fillColor=#ffffc0;strokeColor=#ff0000;" vertex="1" parent="1">
          <mxGeometry x="150" y="140" width="120" height="40" as="geometry" />
        </mxCell>
        <mxCell id="NEW2Dw0frZBsMnFtJAXS-15" style="rounded=0;orthogonalLoop=1;jettySize=auto;html=1;exitX=1;exitY=0.3333333333333333;exitDx=0;exitDy=0;exitPerimeter=0;entryX=0;entryY=0.5;entryDx=0;entryDy=0;endArrow=none;endFill=0;" edge="1" parent="1" source="NEW2Dw0frZBsMnFtJAXS-1" target="NEW2Dw0frZBsMnFtJAXS-11">
          <mxGeometry relative="1" as="geometry">
            <mxPoint x="80" y="220" as="sourcePoint" />
            <mxPoint x="220" y="200" as="targetPoint" />
          </mxGeometry>
        </mxCell>
        <mxCell id="NEW2Dw0frZBsMnFtJAXS-16" style="rounded=0;orthogonalLoop=1;jettySize=auto;html=1;exitX=1;exitY=0.3333333333333333;exitDx=0;exitDy=0;exitPerimeter=0;entryX=0;entryY=0.5;entryDx=0;entryDy=0;endArrow=none;endFill=0;" edge="1" parent="1" source="NEW2Dw0frZBsMnFtJAXS-1" target="NEW2Dw0frZBsMnFtJAXS-8">
          <mxGeometry relative="1" as="geometry">
            <mxPoint x="90" y="230" as="sourcePoint" />
            <mxPoint x="230" y="210" as="targetPoint" />
          </mxGeometry>
        </mxCell>
        <mxCell id="NEW2Dw0frZBsMnFtJAXS-17" style="rounded=0;orthogonalLoop=1;jettySize=auto;html=1;exitX=1;exitY=0.3333333333333333;exitDx=0;exitDy=0;exitPerimeter=0;entryX=0;entryY=0.5;entryDx=0;entryDy=0;endArrow=none;endFill=0;" edge="1" parent="1" source="NEW2Dw0frZBsMnFtJAXS-1" target="NEW2Dw0frZBsMnFtJAXS-6">
          <mxGeometry relative="1" as="geometry">
            <mxPoint x="70" y="210" as="sourcePoint" />
            <mxPoint x="210" y="400" as="targetPoint" />
          </mxGeometry>
        </mxCell>
        <mxCell id="NEW2Dw0frZBsMnFtJAXS-18" style="rounded=0;orthogonalLoop=1;jettySize=auto;html=1;exitX=1;exitY=0.3333333333333333;exitDx=0;exitDy=0;exitPerimeter=0;entryX=0;entryY=0.5;entryDx=0;entryDy=0;endArrow=none;endFill=0;" edge="1" parent="1" source="NEW2Dw0frZBsMnFtJAXS-1" target="NEW2Dw0frZBsMnFtJAXS-12">
          <mxGeometry relative="1" as="geometry">
            <mxPoint x="80" y="220" as="sourcePoint" />
            <mxPoint x="220" y="410" as="targetPoint" />
          </mxGeometry>
        </mxCell>
        <mxCell id="NEW2Dw0frZBsMnFtJAXS-31" style="rounded=0;orthogonalLoop=1;jettySize=auto;html=1;exitX=1;exitY=0.5;exitDx=0;exitDy=0;entryX=0;entryY=0.5;entryDx=0;entryDy=0;endArrow=none;endFill=0;" edge="1" parent="1" source="NEW2Dw0frZBsMnFtJAXS-19" target="NEW2Dw0frZBsMnFtJAXS-24">
          <mxGeometry relative="1" as="geometry" />
        </mxCell>
        <mxCell id="NEW2Dw0frZBsMnFtJAXS-19" value="모집 탈퇴" style="rounded=1;whiteSpace=wrap;html=1;arcSize=40;fontColor=#000000;fillColor=#ffffc0;strokeColor=#ff0000;" vertex="1" parent="1">
          <mxGeometry x="550" y="140" width="120" height="40" as="geometry" />
        </mxCell>
        <mxCell id="NEW2Dw0frZBsMnFtJAXS-21" style="edgeStyle=orthogonalEdgeStyle;rounded=0;orthogonalLoop=1;jettySize=auto;html=1;exitX=0.5;exitY=1;exitDx=0;exitDy=0;" edge="1" parent="1" source="NEW2Dw0frZBsMnFtJAXS-9" target="NEW2Dw0frZBsMnFtJAXS-9">
          <mxGeometry relative="1" as="geometry" />
        </mxCell>
        <mxCell id="NEW2Dw0frZBsMnFtJAXS-24" value="DB" style="html=1;dropTarget=0;whiteSpace=wrap;" vertex="1" parent="1">
          <mxGeometry x="710" y="180" width="100" height="90" as="geometry" />
        </mxCell>
        <mxCell id="NEW2Dw0frZBsMnFtJAXS-26" value="Firebase" style="html=1;dropTarget=0;whiteSpace=wrap;" vertex="1" parent="1">
          <mxGeometry x="710" y="470" width="100" height="90" as="geometry" />
        </mxCell>
      </root>
    </mxGraphModel>
  </diagram>
</mxfile>
